<?xml version="1.0" encoding="UTF-8"?>
<!DOCTYPE svg PUBLIC "-//W3C//DTD SVG 1.1//EN" "http://www.w3.org/Graphics/SVG/1.1/DTD/svg11.dtd">
<!-- Creator: CorelDRAW -->
<svg xmlns="http://www.w3.org/2000/svg" xml:space="preserve" width="512px" height="512px" version="1.1" style="shape-rendering:geometricPrecision; text-rendering:geometricPrecision; image-rendering:optimizeQuality; fill-rule:evenodd; clip-rule:evenodd"
viewBox="0 0 512 512"
 xmlns:xlink="http://www.w3.org/1999/xlink"
 xmlns:xodm="http://www.corel.com/coreldraw/odm/2003">
 <defs>
  <style type="text/css">
   <![CDATA[
    .fil6 {fill:#2091EB}
    .fil4 {fill:#242D32}
    .fil0 {fill:#36444D}
    .fil2 {fill:#CBD4D8}
    .fil1 {fill:#CFFFFF}
    .fil3 {fill:#F68621}
    .fil5 {fill:white}
   ]]>
  </style>
 </defs>
 <g id="Layer_x0020_1">
  <metadata id="CorelCorpID_0Corel-Layer"/>
  <g id="_2023866190896">
   <path class="fil0" d="M400.97 511.96l-289.94 0c-18.06,0 -32.75,-13.2 -32.75,-29.43l0 -453.06c0,-16.23 14.69,-29.43 32.75,-29.43l289.94 0c18.06,0 32.75,13.2 32.75,29.43l0 453.06c0,16.23 -14.69,29.43 -32.75,29.43z"/>
   <polygon class="fil1" points="98.79,455.31 98.79,56.69 413.21,56.69 413.21,455.31 "/>
   <path class="fil2" d="M274.25 35.36l-36.5 0c-4.3,0 -7.79,-3.13 -7.79,-7 0,-3.86 3.49,-7 7.79,-7l36.5 0c4.3,0 7.79,3.14 7.79,7 0,3.87 -3.49,7 -7.79,7z"/>
   <path class="fil2" d="M274.25 490.64l-36.5 0c-4.3,0 -7.79,-3.14 -7.79,-7 0,-3.87 3.49,-7 7.79,-7l36.5 0c4.3,0 7.79,3.13 7.79,7 0,3.86 -3.49,7 -7.79,7z"/>
  </g>
  <path class="fil3" d="M361.15 324.83c-1.32,0 -2.65,-0.38 -3.8,-1.12 -1.53,-0.99 -4.42,-2.92 -8.09,-5.37 -10.49,-7.01 -41.88,-27.97 -48.45,-30.59l-21.16 0c-3.86,0 -7,-3.13 -7,-7 0,-1.19 0.3,-2.31 0.82,-3.29l-40.89 -76.3 -0.23 0c-3.87,0 -7,-3.13 -7,-6.99l0 -20.26c0,-11.92 9.7,-21.62 21.62,-21.62l128.21 0c11.92,0 21.62,9.7 21.62,21.62l0 92.22c0,11.92 -9.7,21.62 -21.62,21.62l-7.03 0 0 30.08c0,2.56 -1.4,4.92 -3.65,6.15 -1.05,0.56 -2.2,0.85 -3.35,0.85z"/>
  <path class="fil4" d="M379.98 119.07l-179.47 0c-3.87,0 -7,-3.13 -7,-7 0,-3.86 3.13,-7 7,-7l179.47 0c3.87,0 7,3.14 7,7 0,3.87 -3.13,7 -7,7z"/>
  <path class="fil4" d="M379.98 406.92l-179.47 0c-3.87,0 -7,-3.13 -7,-7 0,-3.86 3.13,-7 7,-7l179.47 0c3.87,0 7,3.14 7,7 0,3.87 -3.13,7 -7,7z"/>
  <path class="fil4" d="M171.26 406.92l-31.12 0c-3.87,0 -7,-3.13 -7,-7 0,-3.86 3.13,-7 7,-7l31.12 0c3.87,0 7,3.14 7,7 0,3.87 -3.13,7 -7,7z"/>
  <path class="fil5" d="M364.2 202.17l-58.95 0c-3.87,0 -7,-3.13 -7,-6.99 0,-3.87 3.13,-7 7,-7l58.95 0c3.86,0 7,3.13 7,7 0,3.86 -3.14,6.99 -7,6.99z"/>
  <path class="fil5" d="M334.72 202.17c-3.86,0 -7,-3.13 -7,-6.99l0 -9.6c0,-3.86 3.14,-6.99 7,-6.99 3.87,0 7,3.13 7,6.99l0 9.6c0,3.86 -3.13,6.99 -7,6.99z"/>
  <path class="fil5" d="M315.25 255.73c-2.33,0 -4.61,-1.16 -5.94,-3.28 -2.05,-3.28 -1.06,-7.6 2.22,-9.65 29.61,-18.56 30.48,-47.46 30.49,-47.75 0.07,-3.87 3.27,-6.96 7.12,-6.87 3.87,0.07 6.94,3.26 6.87,7.12 -0.02,1.5 -1.08,36.83 -37.05,59.36 -1.16,0.73 -2.44,1.07 -3.71,1.07z"/>
  <path class="fil5" d="M359 258.33c-0.85,0 -1.71,-0.16 -2.55,-0.48 -35.21,-13.78 -42.92,-45.76 -43.23,-47.12 -0.87,-3.76 1.48,-7.52 5.25,-8.39 3.76,-0.86 7.51,1.48 8.38,5.23 0.27,1.13 6.61,26.25 34.7,37.24 3.6,1.41 5.38,5.47 3.97,9.07 -1.08,2.76 -3.72,4.45 -6.52,4.45z"/>
  <path class="fil6" d="M150.85 359.7c-1.15,0 -2.3,-0.28 -3.35,-0.85 -2.25,-1.22 -3.65,-3.58 -3.65,-6.14l0 -30.08 -7.03 0c-11.92,0 -21.62,-9.7 -21.62,-21.62l0 -92.22c0,-11.92 9.7,-21.62 21.62,-21.62l128.21 0c11.92,0 21.62,9.7 21.62,21.62l0 92.22c0,11.92 -9.7,21.62 -21.62,21.62l-53.85 0c-6.56,2.61 -37.96,23.58 -48.45,30.58 -3.66,2.45 -6.56,4.39 -8.09,5.37 -1.15,0.75 -2.47,1.12 -3.79,1.12z"/>
  <path class="fil5" d="M175.66 294.75c-0.84,0 -1.69,-0.15 -2.51,-0.47 -3.61,-1.39 -5.41,-5.44 -4.02,-9.05l7.05 -18.34 0.08 -0.21 18.13 -47.14 0.01 -0.02 0.06 -0.15 0 -0.01 0.07 -0.15 0 0 0.07 -0.15 0.01 -0.02 0.06 -0.13c0.31,-0.62 0.71,-1.17 1.16,-1.66l0.06 -0.06 0.06 -0.06 0.11 -0.12 0.01 0 0.06 -0.06 0.06 -0.06 0.06 -0.05 0.01 -0.01 0.12 -0.1 0.07 -0.06 0.06 -0.05 0.01 -0.01 0.26 -0.2 0.08 -0.06 0.05 -0.03c0.14,-0.1 0.28,-0.19 0.43,-0.28l0.11 -0.06 0.03 -0.02 0.12 -0.07 0.03 -0.01 0.15 -0.08 0.14 -0.07 0.01 0 0.15 -0.07 0 0 0.16 -0.07 0.01 0 0.14 -0.06 0.02 -0.01 0.14 -0.05 0.03 -0.01 0.13 -0.05 0.04 -0.01 0.12 -0.04 0.05 -0.02 0.11 -0.03 0.06 -0.01 0.1 -0.03 0.14 -0.03 0.03 -0.01 0.08 -0.02 0.08 -0.02 0.09 -0.01 0.08 -0.02 0.09 -0.01 0.07 -0.02 0.03 0c0.16,-0.02 0.32,-0.04 0.48,-0.06l0 0 0.11 0 0.06 -0.01 0.02 0 0.15 -0.01 0.11 0 0.06 0 0.11 0 0.06 0 0.11 0 0.15 0.01 0.02 0 0.06 0.01 0.11 0 0.01 0c0.44,0.04 0.88,0.12 1.32,0.24l0.11 0.03 0.05 0.02 0.12 0.04 0.04 0.01 0.16 0.06 0.14 0.05 0.02 0.01 0.15 0.06 0.16 0.07 0 0 0.15 0.07 0.01 0 0.14 0.07c0.72,0.36 1.36,0.83 1.89,1.39l0.01 0 0.05 0.06 0.06 0.07 0.06 0.06 0.06 0.07 0.05 0.05 0.06 0.08 0.05 0.05 0.06 0.08 0.04 0.06 0.1 0.13 0 0 0.07 0.09 0.03 0.05 0.01 0.01 0.18 0.27 0.06 0.1 0.03 0.04 0.06 0.11 0.02 0.04 0.07 0.12 0.01 0.03 0.07 0.12 0.01 0.02 0.07 0.14 0 0.02 0.07 0.15 0 0 0.07 0.15 0 0.01 0.06 0.15 0.01 0.02 18.1 47.07 0.13 0.34 7.04 18.28c1.38,3.61 -0.42,7.66 -4.03,9.05 -0.82,0.31 -1.67,0.47 -2.51,0.47 -2.81,0 -5.46,-1.71 -6.53,-4.49l-5.37 -13.97 -26.73 0 -5.37 13.97c-1.07,2.78 -3.72,4.49 -6.53,4.49zm33.24 -32.46l-7.97 -20.74 -7.98 20.74 15.95 0z"/>
 </g>
</svg>
